<svg width="75" height="75" viewBox="0 0 75 75" fill="none" xmlns="http://www.w3.org/2000/svg">
<circle cx="37.5" cy="37.5" r="37.5" fill="#CC2229"/>
<g clip-path="url(#clip0)">
<path d="M60.184 14.4028L50.0278 12.059C48.9243 11.8051 47.7914 12.3813 47.3422 13.4164L42.6547 24.3539C42.2446 25.311 42.518 26.434 43.3285 27.0883L49.2465 31.9321C45.7309 39.4223 39.5883 45.6528 31.9418 49.2367L27.0981 43.3188C26.434 42.5082 25.3207 42.2348 24.3637 42.6449L13.4262 47.3324C12.3813 47.7914 11.8051 48.9242 12.059 50.0278L14.4028 60.184C14.6469 61.2387 15.5844 62.0004 16.6879 62.0004C41.6977 62.0004 62.0004 41.7367 62.0004 16.6879C62.0004 15.5942 61.2485 14.6469 60.184 14.4028Z" fill="white"/>
</g>
<defs>
<clipPath id="clip0">
<rect width="50" height="50" fill="white" transform="translate(12 12)"/>
</clipPath>
</defs>
</svg>
