<svg width="50" height="50" viewBox="0 0 50 50" fill="none" xmlns="http://www.w3.org/2000/svg">
<path fill-rule="evenodd" clip-rule="evenodd" d="M28.0602 10.1125H35.8766C36.5188 10.1125 37.2355 10.3353 37.675 10.804L40.2342 13.5365C41.1576 14.522 43.5197 14.5741 44.2807 13.329L39.4388 8.34886C38.6477 7.53513 37.1497 7 36.0148 7H31.0689C28.7178 6.99974 28.034 9.0749 28.0602 10.1125ZM34.9095 10.493C35.0227 10.7246 35.0813 10.979 35.0807 11.2367C35.0807 12.1225 34.405 12.845 33.5763 12.845C32.7475 12.845 32.0718 12.1225 32.0718 11.2367C32.0712 10.979 32.1298 10.7246 32.243 10.493H34.9095ZM24.7794 15.6804C23.8718 14.3697 23.7454 11.3978 26.666 10.6966C28.2986 10.3047 30.3359 11.1789 31.2938 12.1563L36.5269 17.4959C38.0072 19.0064 37.3844 21.1054 36.5624 22.0169L29.5141 14.7193C29.1139 14.3051 28.8441 14.0073 28.268 14.0073H26.2029C24.9827 14.0073 24.72 15.6568 24.7794 15.6804ZM17.4183 28.416V30.1928H17.9062C18.205 30.1928 18.4328 30.1168 18.5933 29.9658C18.7539 29.8154 18.8353 29.5991 18.8353 29.3174C18.8353 29.0266 18.7541 28.804 18.5933 28.6491C18.4328 28.4945 18.205 28.4162 17.9062 28.4162L17.4183 28.416ZM14.3439 35.1696V26.0754H18.2885C19.4312 26.0754 20.3056 26.3385 20.9095 26.8642C21.5133 27.3895 21.8142 28.149 21.8142 29.1371C21.8142 29.7835 21.6617 30.316 21.3587 30.7334C21.0537 31.1534 20.6451 31.3972 20.1284 31.467L22.4568 35.1693H18.9432L17.4183 32.1691V35.1693L14.3439 35.1696ZM23.1978 35.1696V26.0754H26.3373V32.2179H29.3873V35.1696H23.1978ZM30.5281 35.1696V26.0754H36.3596V28.5412H33.6025V29.4167H36.1033V31.7471H33.6025V32.7032H36.4306V35.1696H30.5281ZM37.6996 35.1696V26.0754H40.774L43.4844 30.8333C43.4457 30.601 43.4205 30.3667 43.4089 30.1316C43.3946 29.8748 43.3887 29.5399 43.3887 29.1244V26.0754H46.4083V35.1696H43.3116L40.6297 30.4473C40.6622 30.6509 40.6847 30.8693 40.7008 31.1048C40.7169 31.3378 40.7252 31.5987 40.7252 31.889V35.1693L37.6996 35.1696ZM8.83331 28.8258C9.86493 28.8258 10.7061 29.6668 10.7061 30.6984C10.7061 31.73 9.86493 32.5715 8.83331 32.5715C7.8017 32.5715 6.96022 31.73 6.96022 30.6984C6.96022 29.6668 7.8017 28.8258 8.83331 28.8258ZM8.74252 25.8651C11.3546 25.8651 13.485 28.0365 13.485 30.6984C13.485 33.3608 11.3546 35.5317 8.74252 35.5317C6.13041 35.5317 4 33.3608 4 30.6984C4 28.0365 6.13041 25.8651 8.74252 25.8651Z" fill="white"/>
</svg>
