<svg width="45" height="45" viewBox="0 0 45 45" fill="none" xmlns="http://www.w3.org/2000/svg">
<path d="M22.5 0.703125C10.459 0.703125 0.703125 10.459 0.703125 22.5C0.703125 34.541 10.459 44.2969 22.5 44.2969C34.541 44.2969 44.2969 34.541 44.2969 22.5C44.2969 10.459 34.541 0.703125 22.5 0.703125ZM35.1562 24.9609C35.1562 25.541 34.6816 26.0156 34.1016 26.0156H26.0156V34.1016C26.0156 34.6816 25.541 35.1562 24.9609 35.1562H20.0391C19.459 35.1562 18.9844 34.6816 18.9844 34.1016V26.0156H10.8984C10.3184 26.0156 9.84375 25.541 9.84375 24.9609V20.0391C9.84375 19.459 10.3184 18.9844 10.8984 18.9844H18.9844V10.8984C18.9844 10.3184 19.459 9.84375 20.0391 9.84375H24.9609C25.541 9.84375 26.0156 10.3184 26.0156 10.8984V18.9844H34.1016C34.6816 18.9844 35.1562 19.459 35.1562 20.0391V24.9609Z" fill="#CC2229"/>
</svg>
